<svg width="130" height="203" viewBox="0 0 130 203" fill="none" xmlns="http://www.w3.org/2000/svg">
<path d="M64.9238 202.078C45.2038 202.078 29.5462 195.942 17.9512 183.67C6.52539 171.567 0.8125 156.544 0.8125 138.602L24.9336 127.176H26.2031V138.602C26.2031 149.773 29.25 158.956 35.3438 166.15C42.707 174.868 52.5671 179.227 64.9238 179.227C77.0267 179.227 86.8867 174.868 94.5039 166.15C100.598 159.126 103.645 149.943 103.645 138.602C103.645 127.684 101.148 119.347 96.1543 113.592C89.2142 105.636 78.7617 101.658 64.7969 101.658C49.1393 101.658 35.8516 96.5801 24.9336 86.4238C16.4701 78.5527 12.2383 67.4232 12.2383 53.0352V40.8477L64.9238 0.222656C80.9199 1.32292 93.2344 5.38542 101.867 12.4102C112.362 20.9583 117.609 33.5267 117.609 50.1152L93.4883 61.541H92.2188V50.1152C92.2188 39.7051 89.4681 32.0879 83.9668 27.2637C78.6348 22.6087 72.2871 20.2812 64.9238 20.2812C56.7142 20.2812 50.1126 22.8626 45.1191 28.0254C40.1257 33.1882 37.6289 40.5514 37.6289 50.1152C37.6289 59.3405 39.5332 66.069 43.3418 70.3008C48.4199 75.9714 55.5716 78.8066 64.7969 78.8066C85.0247 78.8066 100.725 83.6309 111.896 93.2793C123.322 103.182 129.035 118.204 129.035 138.348V152.566L64.9238 202.078Z" fill="white"/>
</svg>
