<?xml version="1.0" encoding="UTF-8" standalone="no"?>
<!-- Created with Inkscape (http://www.inkscape.org/) -->

<svg
   width="155.03069mm"
   height="191.94414mm"
   viewBox="0 0 155.03069 191.94414"
   version="1.1"
   id="svg5"
   xml:space="preserve"
   inkscape:version="1.2.2 (732a01da63, 2022-12-09)"
   sodipodi:docname="LogoAR.svg"
   xmlns:inkscape="http://www.inkscape.org/namespaces/inkscape"
   xmlns:sodipodi="http://sodipodi.sourceforge.net/DTD/sodipodi-0.dtd"
   xmlns="http://www.w3.org/2000/svg"
   xmlns:svg="http://www.w3.org/2000/svg"><sodipodi:namedview
     id="namedview7"
     pagecolor="#505050"
     bordercolor="#eeeeee"
     borderopacity="1"
     inkscape:showpageshadow="0"
     inkscape:pageopacity="0"
     inkscape:pagecheckerboard="0"
     inkscape:deskcolor="#505050"
     inkscape:document-units="mm"
     showgrid="false"
     inkscape:zoom="0.74564394"
     inkscape:cx="160.93472"
     inkscape:cy="651.78562"
     inkscape:window-width="1920"
     inkscape:window-height="1017"
     inkscape:window-x="-8"
     inkscape:window-y="-8"
     inkscape:window-maximized="1"
     inkscape:current-layer="g577" /><defs
     id="defs2" /><g
     inkscape:label="Capa 1"
     inkscape:groupmode="layer"
     id="layer1"
     transform="translate(-31.323899,-37.75849)"><g
       id="g577"
       transform="matrix(0.72066181,0,0,0.72066181,-183.08401,-48.497118)"><path
         style="fill:#8022d3;fill-opacity:1;stroke:#9b29ff;stroke-width:0.348164;stroke-opacity:1"
         d="m 477.30035,385.51318 c -15.9435,-1.53531 -30.62734,-10.32887 -39.19296,-23.47107 -1.86406,-2.86002 -139.78093,-241.61596 -139.78093,-241.98292 0,-0.11215 8.49956,-0.14431 18.88792,-0.0715 17.97233,0.12602 19.03982,0.16925 22.0214,0.89189 6.90958,1.67465 12.72336,4.18589 18.4259,7.95896 4.75539,3.14641 11.11688,9.51237 14.19809,14.20808 2.05521,3.13211 140.23969,242.2436 140.23969,242.66779 0,0.28936 -31.60224,0.1066 -34.79911,-0.20126 z"
         id="path2184"
         inkscape:export-filename="Logo.png"
         inkscape:export-xdpi="350"
         inkscape:export-ydpi="350" /><path
         style="fill:#ffffff;fill-opacity:1;stroke:#ffffff;stroke-width:0.348164;stroke-opacity:1"
         d="m 345.98415,385.52702 c -21.5628,-1.92088 -40.10914,-17.15326 -46.11459,-37.87457 -2.19243,-7.56482 -2.02015,0.82806 -2.14132,-104.31152 -0.0607,-52.64727 -0.049,-95.65429 0.026,-95.57115 0.65891,0.73103 46.31222,80.28444 47.43962,82.66616 1.75894,3.71592 3.00386,7.42281 4.02497,11.98485 0.69369,3.09922 0.75656,4.53142 0.89143,20.3074 0.10853,12.69499 0.2482,16.96972 0.55414,16.95992 0.22497,-0.007 2.97775,-4.4906 6.11728,-9.96311 4.80851,-8.38165 5.76459,-9.8476 6.06563,-9.3003 0.19655,0.35734 3.88593,6.76 8.19862,14.22813 4.3127,7.46813 8.5298,15.19637 9.37134,17.17388 5.66333,13.30801 5.48025,29.00019 -0.49171,42.14659 -0.66279,1.45904 -7.58234,13.73131 -15.37677,27.27171 -11.53721,20.04231 -14.30113,24.61242 -14.86801,24.58409 -0.38299,-0.0192 -2.04644,-0.15508 -3.69657,-0.30208 z"
         id="path2600" /><path
         style="fill:#ffffff;fill-opacity:1;stroke:#ffffff;stroke-width:0.348164;stroke-opacity:1"
         d="m 460.52563,267.78937 c -5.22137,-8.96188 -7.23883,-13.71786 -8.72822,-20.57594 -1.03809,-4.78002 -1.12983,-15.53455 -0.17133,-20.08506 1.05011,-4.98542 2.29713,-8.66658 4.63568,-13.68436 2.76547,-5.9338 3.60731,-9.24467 3.61058,-14.20014 0.007,-9.9653 -5.37792,-19.06066 -14.00673,-23.65978 -3.79385,-2.02209 -6.65271,-2.77009 -12.79949,-3.34885 -11.73598,-1.10504 -20.64838,-4.40862 -29.14871,-10.80463 -3.51109,-2.64188 -8.14168,-7.34973 -10.597,-10.77381 -1.57044,-2.19005 -15.54641,-25.8985 -17.57879,-29.82018 l -0.50373,-0.972 33.87546,0.12931 c 32.73048,0.12493 33.99313,0.15386 37.3571,0.85577 9.51493,1.98533 14.94113,3.80323 22.14956,7.42058 24.31138,12.20003 40.69524,36.04392 43.51385,63.32693 0.85211,8.24798 0.0155,19.21169 -2.09214,27.41792 -5.70616,22.21714 -20.88933,41.15341 -41.11466,51.2777 -5.96061,2.98372 -5.04564,3.25636 -8.40143,-2.50346 z"
         id="path2740" /></g></g></svg>
